<svg width="48" height="48" viewBox="0 0 48 48" fill="none" xmlns="http://www.w3.org/2000/svg">
<rect width="48" height="48" fill="white"/>
<g clip-path="url(#clip0_79_83)">
<path fill-rule="evenodd" clip-rule="evenodd" d="M4 12V32C4 40.84 11.16 48 20 48H24C28.44 48 32.45 46.19 35.35 43.27C35.38 43.24 37.24 41.38 37.27 41.35C40.19 38.45 42 34.44 42 30V6C42 2.69 39.31 0 36 0C34.32 0 32.81 0.69 31.72 1.8C31.69 1.83 29.82 3.69 29.8 3.72C28.69 4.81 28 6.32 28 8V10H6L4 12ZM32 10V6C32 5.41 32.13 4.86 32.36 4.36C32.86 4.13 33.41 4 34 4C36.21 4 38 5.79 38 8V10H32Z" fill="#212121"/>
</g>
<path fill-rule="evenodd" clip-rule="evenodd" d="M30 10V6C30 2.68629 32.6863 0 36 0C39.3137 0 42 2.68629 42 6V30C42 38.8366 34.8366 46 26 46H22C13.1634 46 6 38.8366 6 30V10H30ZM32 10H40V6C40 3.79086 38.2091 2 36 2C33.7909 2 32 3.79086 32 6V10Z" fill="#EC1A25"/>
<g clip-path="url(#clip1_79_83)">
<path d="M35.2766 36.8652C35.247 36.7838 35.2147 36.7031 35.1886 36.622C35.1337 36.4522 35.0952 36.2778 35.0384 36.1083C34.9823 35.942 34.9081 35.7771 34.872 35.6046C34.834 35.4225 34.8463 35.2358 34.7829 35.0582C34.6814 34.7739 34.4459 34.5945 34.1716 34.4919C34.1224 34.4735 34.079 34.4811 34.0444 34.5034C34.074 34.4331 34.1009 34.3601 34.1247 34.286C34.1635 34.2775 34.2019 34.2594 34.235 34.2337C34.3583 34.138 34.3583 33.9928 34.394 33.8552C34.4351 33.6969 34.5427 33.5594 34.5927 33.4015C34.7187 33.0042 34.7886 32.5558 34.8197 32.1412C34.8232 32.0963 34.8255 32.0517 34.8282 32.0068C34.8489 31.986 34.8662 31.9603 34.8778 31.9291C34.9431 31.7478 34.9442 31.5461 34.9684 31.3559C34.9742 31.3105 34.9827 31.2683 34.9888 31.2279C35.1006 31.017 35.1148 30.7534 35.1413 30.5221C35.1763 30.2182 35.2374 29.9001 35.1821 29.5961C35.2893 29.0617 35.2677 28.5019 35.262 27.9605C35.2555 27.3046 35.2166 26.6426 35.0706 26.001C34.9273 25.3701 34.658 24.8252 34.2757 24.3058C34.0859 24.0476 33.8838 23.8094 33.6406 23.5992C33.5357 23.5085 33.4146 23.4002 33.284 23.3206C33.2875 23.301 33.2894 23.2818 33.2909 23.2626C33.4896 22.9091 33.3432 22.4277 33.0427 22.1514C32.9351 22.0527 32.8106 21.9839 32.6865 21.9155C32.6742 21.8725 32.6643 21.8291 32.657 21.7845C32.5421 21.0944 32.6865 20.3287 32.1221 19.7977C31.8858 19.5752 31.5892 19.4311 31.2841 19.3286C31.1162 19.2721 30.9452 19.2283 30.7697 19.2048C30.674 19.1922 30.5768 19.1925 30.4811 19.1787C30.3793 19.1641 30.2825 19.1265 30.1806 19.1134C30.1226 19.1061 30.0266 19.0926 29.967 19.1142L29.9674 19.1103C29.9924 18.937 29.9632 18.7718 29.8748 18.62C29.6946 18.3119 29.3841 18.1597 29.0718 18.0199C28.9615 17.9707 28.8489 17.93 28.7348 17.8942C28.7144 17.8831 28.6937 17.877 28.6726 17.8754C28.4055 17.7963 28.132 17.7417 27.8599 17.6695C27.5937 17.5984 27.2056 17.442 26.9101 17.5285C26.9055 17.5235 26.9009 17.5181 26.8955 17.5112C26.869 17.4789 26.8448 17.4478 26.8137 17.4193C26.7372 17.3498 26.6446 17.2999 26.557 17.2461C26.3838 17.14 26.2062 17.0217 26.0045 16.9794C25.9384 16.9656 25.769 16.9775 25.721 16.9241C25.6818 16.8803 25.6895 16.732 25.6664 16.6732C25.5926 16.4811 25.4247 16.3516 25.2745 16.2206C25.107 16.0742 24.9533 15.9289 24.7408 15.8517C24.521 15.7718 24.3016 15.6827 24.0773 15.6173C23.8248 15.5436 23.5659 15.4932 23.3111 15.4283C23.2108 15.4026 23.1129 15.3776 23.0103 15.3634C22.9127 15.3495 22.7893 15.348 22.7021 15.2996C22.6864 15.2908 22.6706 15.2858 22.6549 15.2823C22.2092 14.8942 21.7262 14.5492 21.2548 14.1938C20.9551 13.9675 20.6492 13.745 20.3307 13.546C20.0433 13.3666 19.7398 13.1595 19.4116 13.0626C18.9049 12.9136 18.3124 13.0369 17.9097 13.3781C17.6796 13.5733 17.5447 13.8411 17.4567 14.1254C17.3572 14.4462 17.2623 14.7978 17.2408 15.1336C17.2277 15.3361 17.2923 15.5059 17.3318 15.7C17.373 15.9013 17.3637 16.1149 17.3845 16.3193C17.4233 16.7089 17.5193 17.12 17.6577 17.4908C17.655 17.49 17.6523 17.4889 17.6496 17.4881C17.5186 17.4451 17.3972 17.4013 17.2761 17.3341C17.0383 17.2019 16.8212 17.0355 16.5803 16.9087C16.0927 16.6517 15.6124 16.4288 15.0596 16.37C14.5474 16.3155 13.9983 16.284 13.6007 16.6751C13.2479 17.0221 13.2844 17.5139 13.4781 17.9323C13.5745 18.1409 13.6564 18.3684 13.8443 18.5113C14.0371 18.6573 14.2227 18.8164 14.4194 18.957C14.6273 19.1061 14.8721 19.1825 15.0845 19.327C15.3062 19.4776 15.5575 19.5937 15.8011 19.7055C16.193 19.8849 16.6126 19.9425 17.0283 20.0259C16.9695 20.0451 16.9219 20.087 16.8762 20.1623C16.7959 20.2953 16.7409 20.4459 16.7006 20.5953C16.6149 20.9135 16.5907 21.2493 16.5818 21.5778C16.5611 22.3658 16.6537 23.1377 16.6906 23.9227C16.7309 24.7811 16.6867 25.6471 16.6856 26.5062C16.684 27.3749 16.7497 28.2571 16.6295 29.1205C16.5649 29.585 16.46 30.0422 16.3567 30.4994C16.2929 30.7826 16.2564 31.1334 16.0785 31.3774C15.9544 31.3351 15.8311 31.289 15.6981 31.3305C15.5391 31.3801 15.4511 31.5307 15.4223 31.6863C15.3896 31.8611 15.4023 32.0363 15.3619 32.2115C15.2997 32.4813 15.1963 32.7445 15.0811 32.9961C14.8916 33.4099 14.5873 33.7776 14.3341 34.1538C14.2035 34.3482 14.0552 34.5246 13.9007 34.6955C13.8516 34.727 13.8051 34.762 13.762 34.7943C13.5941 34.9199 13.4362 35.0621 13.2994 35.2212C13.1081 35.4432 12.8487 35.8409 13.1158 36.0818C13.2568 36.3788 13.6898 36.4119 13.9845 36.375C14.3434 36.4445 14.7341 36.3715 15.0891 36.2536C15.4284 36.2824 15.8011 36.1137 16.0827 35.9608C16.314 35.8351 16.5592 35.6469 16.7643 35.4271C16.9841 35.288 17.1785 35.1201 17.376 34.9514C17.5224 34.8262 17.64 34.6852 17.7633 34.5442C17.7948 34.5422 17.8286 34.5303 17.864 34.5057C18.3546 34.1626 18.9329 33.8326 19.238 33.2966C19.256 33.2651 19.2714 33.234 19.2856 33.2025C19.3529 33.1414 19.4128 33.0734 19.4554 32.9919C19.5488 32.8152 19.5388 32.6396 19.4328 32.4713C19.3824 32.3914 19.3198 32.326 19.2545 32.2638C19.1273 31.9895 18.9198 31.7347 18.7116 31.5092C18.4542 31.2299 18.1283 30.9029 18.2094 30.4902C18.2989 30.0349 18.4561 29.5946 18.6251 29.1639C18.9832 28.2494 19.3567 27.3438 19.6656 26.4105C19.7628 26.1174 19.8554 25.8231 19.9326 25.5245C19.9699 25.5245 20.0087 25.5103 20.0437 25.4765C20.1363 25.3874 20.3518 25.3655 20.4721 25.3355C20.6485 25.2913 20.8452 25.2913 21.0135 25.2252C21.2302 25.1399 21.3504 24.9359 21.516 24.7853C21.6989 24.6189 21.9191 24.5098 22.0685 24.3058C22.1369 24.2124 22.1834 24.111 22.2265 24.0042C22.2653 23.9081 22.2945 23.7633 22.3782 23.6952C22.5242 23.5769 22.7674 23.6587 22.9269 23.7048C23.0625 23.744 23.1102 23.7771 23.1882 23.89C23.2473 23.9757 23.3023 24.0414 23.3949 24.0933C23.4763 24.139 23.5639 24.1694 23.6535 24.1932C23.6542 24.1967 23.6546 24.1997 23.6554 24.2028C23.7265 24.4184 23.907 24.6385 24.1084 24.7465C24.3435 24.8725 24.6098 24.763 24.8599 24.791C24.8857 24.791 24.9106 24.7945 24.9356 24.8014C24.9687 24.806 24.9687 24.8145 24.9356 24.8264C24.9383 24.869 24.8934 24.9259 24.8814 24.9689C24.858 25.0558 24.8638 25.1395 24.8803 25.2229C24.8995 25.2364 24.9179 25.2506 24.9352 25.2652C24.9982 25.3194 25.0647 25.3735 25.132 25.4281C25.2199 25.4454 25.3002 25.4773 25.3798 25.5168H25.3836C25.5304 25.5318 25.6476 25.6044 25.7871 25.6463C25.9304 25.6894 26.0748 25.7297 26.2166 25.7773C26.3618 25.8261 26.4944 25.8869 26.6181 25.9783C26.6865 26.029 26.7768 26.077 26.8302 26.1474C26.9121 26.1985 26.9877 26.258 27.0523 26.3256C27.1445 26.3633 27.224 26.4301 27.3005 26.4928C27.3774 26.5558 27.4538 26.6276 27.5237 26.706C27.5898 26.7502 27.6555 26.7948 27.722 26.837C27.8346 26.9085 27.9402 27.0019 28.0113 27.1156C28.0567 27.1882 28.0394 27.2889 27.9813 27.3484L27.979 27.3507C28.0013 27.3842 28.0225 27.4184 28.0417 27.4549C28.132 27.6251 28.2215 27.8452 28.1035 28.0216C28.0962 28.0324 28.0882 28.0431 28.0801 28.0535C28.0801 28.1891 28.0494 28.3328 28.0175 28.4285C27.9863 28.5222 27.9395 28.6091 27.888 28.6932C27.8538 28.868 27.7604 28.9914 27.6893 29.1585C27.6033 29.3602 27.5437 29.5642 27.4842 29.7752C27.3554 30.2313 27.2091 30.677 27.0365 31.1173C27.0273 31.1411 27.0173 31.1645 27.0077 31.188C26.9666 31.3163 26.922 31.4435 26.8725 31.5695C26.743 31.898 26.6162 32.2273 26.4936 32.5585C26.4909 32.6284 26.4971 32.6995 26.5148 32.774C26.5336 32.8532 26.5816 32.9212 26.5912 33.0038C26.5981 33.0607 26.5928 33.1221 26.587 33.179C26.5663 33.3807 26.4379 33.5002 26.3127 33.6478C26.245 33.7277 26.2028 33.8134 26.1455 33.9002C26.1063 33.9594 26.0383 34.0059 26.0034 34.0646C25.9069 34.226 26.041 34.4043 26.0326 34.5749C26.0253 34.7228 25.9649 34.8623 25.9527 35.0071C25.9527 35.0095 25.9515 35.0133 25.9515 35.0133C25.9565 35.0164 25.9626 35.0202 25.9703 35.026C26.0057 35.0529 26.031 35.0702 26.0622 35.1047C26.1017 35.1489 26.1413 35.1985 26.1751 35.2469C26.2589 35.366 26.2835 35.5097 26.2443 35.6519C26.1932 35.8371 26.1052 36.0107 26.0614 36.199C26.018 36.3846 25.9684 36.5502 25.9058 36.7304C25.8362 36.9313 25.769 37.138 25.6879 37.3348C25.6184 37.5046 25.5073 37.6068 25.3894 37.7413C25.2595 37.8892 25.0889 37.9526 24.9491 38.0832C24.8365 38.1885 24.7573 38.2984 24.6017 38.3418C24.5621 38.353 24.5241 38.3507 24.4899 38.3384C24.4849 38.346 24.4795 38.3533 24.4734 38.3618C24.3531 38.5228 24.1841 38.532 23.9966 38.5312C23.9485 38.5312 23.9101 38.5159 23.8805 38.4924C23.7007 38.5674 23.5236 38.6477 23.3396 38.7149C23.0191 38.8321 22.7248 38.9938 22.3886 39.0668C22.0447 39.1414 21.7001 39.1971 21.3593 39.2885C21.0042 39.3834 20.6469 39.4899 20.2792 39.5225C20.1159 39.5371 19.953 39.5233 19.7901 39.5333C19.6091 39.5444 19.4324 39.5898 19.2522 39.6032C19.0728 39.6167 18.9091 39.5602 18.732 39.5506C18.5652 39.5417 18.4019 39.5602 18.234 39.5437C17.8774 39.5091 17.5678 39.554 17.2392 39.6985C17.0783 39.7696 16.9265 39.8599 16.7594 39.9164C16.6087 39.9675 16.4531 40.0013 16.3056 40.0616C15.9771 40.1957 15.7477 40.4335 15.6213 40.7628C15.5902 40.8443 15.6436 40.9315 15.7077 40.9757C16.0428 41.2066 16.4812 41.1904 16.8677 41.1443C17.6918 41.0446 18.5739 41.1432 19.3782 40.9249C19.6679 40.8462 19.9557 40.8389 20.2539 40.8493C20.5336 40.8592 20.8152 40.8646 21.0942 40.89C21.3831 40.9165 21.6805 40.9803 21.971 40.9526C22.2442 40.9255 22.5224 40.9805 22.812 40.9926C23.1451 41.0064 23.4771 41.0321 23.8098 41.0521C24.4838 41.0928 25.1446 40.9983 25.8163 40.9703C25.8189 40.9703 25.8216 40.9703 25.8243 40.9703C26.1486 41.0429 26.4775 41.119 26.8068 41.1409C27.1749 41.1651 27.5403 41.0882 27.9083 41.1059C28.0751 41.114 28.238 41.1209 28.3894 41.0882C28.4382 41.061 28.4854 41.0302 28.5316 41.0029C28.6491 40.933 28.7694 40.8596 28.8923 40.7997C28.9992 40.7474 29.0553 40.6871 29.1352 40.603C29.2397 40.4935 29.3115 40.382 29.3976 40.2575C29.408 40.2345 29.418 40.2114 29.4287 40.1892C29.5286 39.9836 29.6266 39.7431 29.7787 39.5648C29.7872 39.5248 29.8045 39.4949 29.8275 39.4737C29.8329 39.4611 29.8383 39.4484 29.8441 39.4357C29.8448 39.4027 29.8471 39.3692 29.8537 39.3343C29.8648 39.2732 29.9278 39.2125 29.9878 39.2002C29.9943 39.1986 30.0012 39.1975 30.0077 39.1959C30.0538 39.1863 30.0946 39.1925 30.1292 39.2082C30.1933 39.2113 30.2583 39.2397 30.2963 39.2939C30.3624 39.3881 30.3439 39.4918 30.3628 39.6009C30.3854 39.7308 30.4338 39.8507 30.4903 39.9694C30.5929 40.1849 30.7347 40.3325 30.8926 40.505C31.0559 40.6833 31.2219 40.855 31.4067 40.9999C31.5473 41.0506 31.6837 41.1124 31.8243 41.1616C32.0107 41.1501 32.197 41.132 32.3826 41.1109C32.7 41.0752 33.1153 41.1075 33.4123 40.9457C33.4715 41.0283 33.5852 41.064 33.6709 40.963C33.7597 40.8585 33.9122 40.8469 34.0133 40.7494C34.1147 40.6514 34.1769 40.5215 34.2469 40.402C34.4209 40.105 34.691 39.8756 34.8489 39.5686C34.995 39.2847 35.0822 38.9681 35.0975 38.6484C35.1118 38.3476 34.9339 37.9883 35.116 37.7213C35.2474 37.528 35.3895 37.3939 35.3588 37.1519C35.3615 37.1407 35.3638 37.1292 35.3653 37.1173C35.3773 37.0201 35.3373 36.9394 35.28 36.8668L35.2766 36.8652ZM20.8986 18.758C20.7952 18.811 20.7092 18.8898 20.6162 18.9582C20.5113 18.846 20.3891 18.7564 20.2623 18.6585C20.1263 18.5532 20.006 18.4249 19.857 18.3426C19.8896 18.2827 19.8927 18.2039 19.8404 18.1363C19.8704 18.1751 19.8558 18.1002 19.8646 18.0579C19.8769 18.0003 19.8988 17.9427 19.923 17.8893C19.9788 17.7659 20.0656 17.6622 20.144 17.5531C20.3326 17.2891 20.3899 16.9963 20.3876 16.6759C20.3868 16.5718 20.3803 16.4699 20.3695 16.3697C20.4283 16.4822 20.4859 16.5952 20.5401 16.7089C20.7007 17.0478 20.8198 17.4044 20.9566 17.7532C21.0726 18.0499 21.176 18.3353 21.2417 18.6419C21.1237 18.67 21.0073 18.7019 20.8986 18.758Z" fill="white"/>
</g>
<defs>
<clipPath id="clip0_79_83">
<rect width="38" height="48" fill="white" transform="translate(4)"/>
</clipPath>
<clipPath id="clip1_79_83">
<rect width="22.3637" height="28.21" fill="white" transform="translate(13 13)"/>
</clipPath>
</defs>
</svg>
